<svg width="14" height="14" viewBox="0 0 14 14" fill="none" xmlns="http://www.w3.org/2000/svg">
<g clip-path="url(#clip0_16_2)">
<path fill-rule="evenodd" clip-rule="evenodd" d="M0 7C0 5.14348 0.737498 3.36301 2.05025 2.05025C3.36301 0.737498 5.14348 0 7 0C8.85652 0 10.637 0.737498 11.9497 2.05025C13.2625 3.36301 14 5.14348 14 7C14 8.85652 13.2625 10.637 11.9497 11.9497C10.637 13.2625 8.85652 14 7 14C5.14348 14 3.36301 13.2625 2.05025 11.9497C0.737498 10.637 0 8.85652 0 7ZM4.19 10.7C4.17011 10.7808 4.13431 10.8567 4.08468 10.9235C4.03505 10.9902 3.97261 11.0464 3.901 11.0887C3.82939 11.131 3.75006 11.1586 3.66765 11.1698C3.58524 11.1811 3.50142 11.1757 3.4211 11.1542C3.34077 11.1326 3.26556 11.0952 3.19986 11.0442C3.13417 10.9932 3.07931 10.9296 3.03851 10.8572C2.99771 10.7847 2.97178 10.7048 2.96225 10.6222C2.95272 10.5396 2.95977 10.4559 2.983 10.376C3.22158 9.49265 3.74454 8.7125 4.47101 8.15621C5.19748 7.59991 6.087 7.29845 7.002 7.29845C7.917 7.29845 8.80652 7.59991 9.53299 8.15621C10.2595 8.7125 10.7824 9.49265 11.021 10.376C11.0633 10.5358 11.0406 10.7059 10.9578 10.849C10.8751 10.9921 10.739 11.0966 10.5793 11.1395C10.4197 11.1825 10.2495 11.1605 10.1061 11.0783C9.96267 10.9961 9.85763 10.8605 9.814 10.701C9.64691 10.0831 9.28094 9.53742 8.77266 9.14833C8.26439 8.75925 7.6421 8.54841 7.002 8.54841C6.3619 8.54841 5.73961 8.75925 5.23134 9.14833C4.72306 9.53742 4.35709 10.0831 4.19 10.701V10.7ZM4.582 5.976C4.31029 5.97573 4.04981 5.86754 3.85786 5.67522C3.66592 5.48291 3.55823 5.22221 3.5585 4.9505C3.55877 4.67879 3.66696 4.41831 3.85928 4.22636C4.05159 4.03442 4.31229 3.92673 4.584 3.927H4.587C4.85871 3.9274 5.11914 4.03572 5.31099 4.22813C5.50284 4.42054 5.6104 4.68129 5.61 4.953C5.6096 5.22471 5.50128 5.48514 5.30887 5.67699C5.11646 5.86884 4.85571 5.9764 4.584 5.976H4.582ZM9.413 5.976C9.14129 5.9756 8.88086 5.86728 8.68901 5.67487C8.49716 5.48246 8.3896 5.22171 8.39 4.95C8.3904 4.67829 8.49872 4.41786 8.69113 4.22601C8.88354 4.03416 9.14429 3.9266 9.416 3.927H9.418C9.68971 3.92727 9.95019 4.03546 10.1421 4.22778C10.3341 4.42009 10.4418 4.68079 10.4415 4.9525C10.4412 5.22421 10.333 5.48469 10.1407 5.67664C9.94841 5.86858 9.68771 5.97627 9.416 5.976H9.413Z" fill="black"/>
</g>
<defs>
<clipPath id="clip0_16_2">
<rect width="14" height="14" fill="white"/>
</clipPath>
</defs>
</svg>
