<svg width="128" height="128" viewBox="0 0 128 128" fill="none" xmlns="http://www.w3.org/2000/svg">
<g clip-path="url(#clip0_16_4)">
<path d="M-0.200195 93.42C-0.200195 107.3 28.4498 118.53 63.7898 118.53C99.1298 118.53 127.79 107.3 127.79 93.42C127.79 79.55 126.32 9.46997 63.7898 9.46997C1.26981 9.46997 -0.200195 79.55 -0.200195 93.42Z" fill="#FCC21B"/>
<path d="M31.1198 63.44C30.8698 63.44 30.6298 63.44 30.3798 63.43C29.6518 63.4019 28.9649 63.0859 28.4698 62.5515C27.9748 62.0171 27.7122 61.3079 27.7398 60.58C27.7998 59.06 29.0698 57.87 30.5898 57.94C36.7798 58.18 42.2398 54.15 43.8498 48.15C44.2398 46.68 45.7498 45.81 47.2198 46.21C48.6898 46.6 49.5598 48.11 49.1598 49.58C46.9498 57.82 39.5898 63.44 31.1198 63.44ZM96.4698 63.44C87.9998 63.44 80.6398 57.82 78.4298 49.56C78.243 48.8559 78.3421 48.1066 78.7055 47.4753C79.0689 46.8441 79.6671 46.382 80.3698 46.19C81.8398 45.8 83.3498 46.67 83.7398 48.13C85.3498 54.13 90.8098 58.16 96.9998 57.92C97.7269 57.8956 98.4342 58.1593 98.9679 58.6537C99.5016 59.148 99.8185 59.8332 99.8498 60.56C99.9098 62.08 98.7298 63.36 97.2098 63.41C96.9598 63.44 96.7198 63.44 96.4698 63.44Z" fill="#2F2F2F"/>
<path d="M6.92999 67.54C7.96999 72.23 11.03 75.15 13.61 75.95C16.5 76.84 19.12 76.41 20.99 74.75C23.36 72.64 24.18 68.91 23.32 64.24C21.75 55.85 22.86 41.07 22.87 40.93C22.91 40.36 22.63 39.84 22.11 39.6C21.61 39.34 21.01 39.44 20.59 39.82C6.24999 52.86 5.86999 62.78 6.92999 67.54Z" fill="white"/>
<path d="M84.8401 68.79C75.3601 68.79 72.2301 73.45 63.7901 73.45C55.3501 73.45 52.2201 68.79 42.7401 68.79C33.2601 68.79 25.5801 75.45 25.5801 83.67C25.5801 91.89 33.2601 98.55 42.7401 98.55C52.2201 98.55 55.3501 93.89 63.7901 93.89C72.2301 93.89 75.3601 98.55 84.8401 98.55C94.3201 98.55 102 91.88 102 83.66C102 75.45 94.3201 68.79 84.8401 68.79Z" fill="#ED6C30"/>
</g>
<defs>
<clipPath id="clip0_16_4">
<rect width="128" height="128" fill="white"/>
</clipPath>
</defs>
</svg>
